HIERARCHY
ROOT Hips
{
 OFFSET 0.000000 0.000000 0.000000
 CHANNELS 6 Xposition Yposition Zposition Yrotation Xrotation Zrotation
 JOINT Chest
 {
  OFFSET 0.000000 9.585900 0.002600
  CHANNELS 3 Yrotation Xrotation Zrotation
  JOINT Chest2
  {
   OFFSET 0.000000 9.601200 -0.005300
   CHANNELS 3 Yrotation Xrotation Zrotation
   JOINT Chest3
   {
    OFFSET 0.000000 9.561800 0.000000
    CHANNELS 3 Yrotation Xrotation Zrotation
    JOINT Chest4
    {
     OFFSET 0.000000 9.552100 0.000000
     CHANNELS 3 Yrotation Xrotation Zrotation
     JOINT Neck
     {
      OFFSET 0.000000 14.453000 0.000000
      CHANNELS 3 Yrotation Xrotation Zrotation
      JOINT Head
      {
       OFFSET 0.000000 8.936500 -0.011300
       CHANNELS 3 Yrotation Xrotation Zrotation
       End Site
       {
        OFFSET 0.000000 17.073600 -0.006000
       }
      }
     }
     JOINT RightCollar
     {
      OFFSET -2.921100 9.558500 0.000000
      CHANNELS 3 Yrotation Xrotation Zrotation
      JOINT RightShoulder
      {
       OFFSET -13.519700 0.000000 0.000000
       CHANNELS 3 Yrotation Xrotation Zrotation
       JOINT RightElbow
       {
        OFFSET 0.000000 -29.696600 0.000000
        CHANNELS 3 Yrotation Xrotation Zrotation
        JOINT RightWrist
        {
         OFFSET 0.000000 -24.004700 0.000000
         CHANNELS 3 Yrotation Xrotation Zrotation
         End Site
         {
          OFFSET 0.000000 -17.728500 0.000000
         }
        }
       }
      }
     }
     JOINT LeftCollar
     {
      OFFSET 2.921100 9.558500 0.000000
      CHANNELS 3 Yrotation Xrotation Zrotation
      JOINT LeftShoulder
      {
       OFFSET 13.519700 0.000000 0.000000
       CHANNELS 3 Yrotation Xrotation Zrotation
       JOINT LeftElbow
       {
        OFFSET 0.000000 -29.696600 0.000000
        CHANNELS 3 Yrotation Xrotation Zrotation
        JOINT LeftWrist
        {
         OFFSET 0.000000 -24.004700 0.000000
         CHANNELS 3 Yrotation Xrotation Zrotation
         End Site
         {
          OFFSET 0.000000 -17.728500 0.000000
         }
        }
       }
      }
     }
    }
   }
  }
 }
 JOINT RightHip
 {
  OFFSET -7.771700 -0.012900 -0.001300
  CHANNELS 3 Yrotation Xrotation Zrotation
  JOINT RightKnee
  {
   OFFSET 0.000000 -40.869800 0.001200
   CHANNELS 3 Yrotation Xrotation Zrotation
   JOINT RightAnkle
   {
    OFFSET 0.000000 -39.717900 0.002100
    CHANNELS 3 Yrotation Xrotation Zrotation
    JOINT RightToe
    {
     OFFSET 0.000000 -4.965400 11.033500
     CHANNELS 3 Yrotation Xrotation Zrotation
     End Site
     {
      OFFSET 0.000000 -1.423100 5.872300
     }
    }
   }
  }
 }
 JOINT LeftHip
 {
  OFFSET 7.771700 -0.012900 -0.001300
  CHANNELS 3 Yrotation Xrotation Zrotation
  JOINT LeftKnee
  {
   OFFSET 0.000000 -40.869800 0.001200
   CHANNELS 3 Yrotation Xrotation Zrotation
   JOINT LeftAnkle
   {
    OFFSET 0.000000 -39.717900 0.002100
    CHANNELS 3 Yrotation Xrotation Zrotation
    JOINT LeftToe
    {
     OFFSET 0.000000 -4.965400 11.033500
     CHANNELS 3 Yrotation Xrotation Zrotation
     End Site
     {
      OFFSET 0.000000 -1.423100 5.872300
     }
    }
   }
  }
 }
}
MOTION
Frames: 9
Frame Time: 0.008333
-31.283603 50.643123 6.085318 163.345075 -8.770471 -0.647340 3.968439 7.842841 0.626306 0.178420 0.406207 -0.019971 0.309658 0.708201 -0.033034 3.243976 7.400388 -0.166822 2.650025 18.148989 -0.108014 4.909241 -2.051321 -1.076583 2.868365 7.509275 1.179406 -7.485855 -15.265187 -7.220570 -47.135900 -69.305003 67.977562 -3.149189 2.114772 -29.836696 -5.307883 4.286177 -0.195154 21.744253 -7.202812 1.380425 53.326451 -69.824583 -76.631620 0.669241 9.869288 11.387720 -4.442993 -71.809702 0.822327 -118.026915 83.582229 -116.640112 -3.014575 -13.999439 -0.025058 -0.216335 0.763924 -0.089216 -14.260392 -74.795930 30.307791 107.864071 78.335202 104.022935 -15.574500 -21.032028 -0.683931 -0.486466 -1.096017 -0.242694
-31.286467 50.641845 6.084369 163.363184 -8.764631 -0.645857 3.954999 7.833835 0.618634 0.178235 0.406168 -0.020003 0.306389 0.710697 -0.030270 3.243373 7.398095 -0.170550 2.649637 18.147221 -0.110345 4.907068 -2.054120 -1.073596 2.863817 7.503667 1.175078 -7.492429 -15.256386 -7.211807 -47.151827 -69.313010 67.988733 -3.155385 2.123507 -29.832227 -5.305012 4.290265 -0.195227 21.742879 -7.210603 1.389250 53.310622 -69.815412 -76.623671 0.659980 9.870949 11.383804 -4.422717 -71.817023 0.792404 -118.017185 83.575670 -116.625909 -3.029072 -13.998736 -0.025568 -0.204893 0.764024 -0.083640 -14.267503 -74.803660 30.297918 107.876145 78.337308 104.037454 -15.582585 -21.038299 -0.688934 -0.490666 -1.096101 -0.231545
-31.286437 50.640881 6.082559 163.386184 -8.770103 -0.657725 3.937716 7.836035 0.625322 0.177957 0.406106 -0.020009 0.306323 0.710309 -0.031379 3.239766 7.399615 -0.168300 2.650349 18.143669 -0.112311 4.904888 -2.057841 -1.072800 2.860950 7.498048 1.169090 -7.496848 -15.248723 -7.204957 -47.160214 -69.317645 67.995885 -3.154874 2.121103 -29.841816 -5.301443 4.288846 -0.194740 21.744148 -7.213238 1.395531 53.315205 -69.809852 -76.648558 0.654137 9.879179 11.388812 -4.462614 -71.810517 0.815639 -118.045919 83.570767 -116.657250 -3.025297 -13.998975 -0.023117 -0.214548 0.762015 -0.087172 -14.299603 -74.796903 30.306963 107.880081 78.337917 104.043127 -15.544704 -21.065040 -0.696600 -0.523965 -1.071990 -0.234219
-31.285010 50.640469 6.078057 163.379776 -8.794961 -0.666435 3.948044 7.858736 0.636362 0.177959 0.405865 -0.020088 0.308318 0.708134 -0.034019 3.234348 7.401625 -0.166484 2.647203 18.136715 -0.117117 4.903999 -2.070495 -1.077746 2.859778 7.493544 1.163319 -7.501785 -15.245313 -7.202016 -47.166823 -69.317135 68.003023 -3.144408 2.109381 -29.844225 -5.298844 4.287545 -0.193216 21.745142 -7.213749 1.399262 53.307065 -69.806082 -76.650168 0.649610 9.881788 11.380283 -4.473336 -71.784296 0.838195 -118.034852 83.567414 -116.647661 -3.020329 -13.995439 -0.019158 -0.219972 0.758900 -0.090763 -14.236067 -74.779064 30.256791 107.958063 78.353127 104.143227 -15.516852 -21.106728 -0.698328 -0.450415 -1.050150 -0.222403
-31.286253 50.639624 6.076281 163.380431 -8.800140 -0.664188 3.947642 7.864479 0.634782 0.177983 0.405109 -0.020407 0.309357 0.707307 -0.034146 3.233009 7.403257 -0.168469 2.646175 18.133228 -0.117717 4.903488 -2.072300 -1.077337 2.856910 7.488141 1.159650 -7.499753 -15.244133 -7.200305 -47.204625 -69.335978 68.029765 -3.159066 2.130344 -29.837062 -5.301742 4.286690 -0.189934 21.745387 -7.215666 1.401666 53.294042 -69.804571 -76.650337 0.648655 9.882119 11.374835 -4.460282 -71.780220 0.829292 -118.016667 83.562186 -116.632773 -3.018534 -13.994460 -0.015127 -0.222150 0.760338 -0.092216 -14.209865 -74.777365 30.229815 108.015373 78.363903 104.209110 -15.504210 -21.135837 -0.701125 -0.401063 -1.046064 -0.205082
-31.285994 50.638717 6.076094 163.385274 -8.799408 -0.673226 3.944071 7.863775 0.643330 0.177412 0.405518 -0.020401 0.309697 0.707408 -0.034274 3.234014 7.402774 -0.169498 2.645331 18.131892 -0.117292 4.901426 -2.076849 -1.077835 2.853543 7.481181 1.156432 -7.497535 -15.246183 -7.204579 -47.221801 -69.340543 68.045863 -3.161551 2.138298 -29.826168 -5.306989 4.288295 -0.187127 21.745395 -7.220304 1.403675 53.285917 -69.805658 -76.646083 0.648010 9.882000 11.365426 -4.487444 -71.778421 0.860187 -117.961464 83.556955 -116.579802 -3.019412 -13.997935 -0.013196 -0.221943 0.765939 -0.091712 -14.228870 -74.777572 30.245182 108.063420 78.377731 104.264579 -15.495022 -21.187714 -0.687359 -0.386791 -1.006089 -0.216237
-31.288101 50.637824 6.075858 163.392550 -8.795548 -0.668897 3.936608 7.861040 0.637884 0.178040 0.406173 -0.020178 0.309711 0.705922 -0.033361 3.236110 7.403782 -0.171032 2.642837 18.127647 -0.117686 4.899453 -2.097094 -1.078786 2.847562 7.471969 1.154167 -7.496174 -15.249266 -7.213450 -47.237607 -69.341716 68.062546 -3.148909 2.131224 -29.821579 -5.314651 4.289713 -0.184990 21.744868 -7.226576 1.405354 53.277523 -69.808175 -76.638937 0.650453 9.880873 11.363501 -4.480479 -71.783285 0.846073 -117.958317 83.556632 -116.578809 -3.016621 -13.999701 -0.011610 -0.225813 0.769514 -0.093504 -14.199958 -74.785793 30.207514 108.111471 78.389920 104.319395 -15.490122 -21.228509 -0.673680 -0.429859 -0.989662 -0.225232
-31.288778 50.636998 6.076422 163.403915 -8.790304 -0.674977 3.925981 7.856107 0.643020 0.177805 0.405720 -0.020130 0.310089 0.703113 -0.034034 3.233235 7.402352 -0.170131 2.644274 18.117909 -0.117037 4.901726 -2.091001 -1.079788 2.848700 7.471918 1.151929 -7.495736 -15.249456 -7.217679 -47.257217 -69.352843 68.084074 -3.145436 2.136936 -29.819155 -5.317781 4.291768 -0.185256 21.747374 -7.231354 1.407259 53.271177 -69.814218 -76.632540 0.660928 9.884238 11.365795 -4.513601 -71.788330 0.868318 -117.912971 83.548264 -116.535006 -3.001416 -13.998257 -0.012711 -0.232708 0.770348 -0.096777 -14.228252 -74.792874 30.219091 108.144174 78.389296 104.352692 -15.459426 -21.262505 -0.670642 -0.428204 -1.007684 -0.219331
-31.289885 50.636403 6.076086 163.415961 -8.790451 -0.677455 3.915464 7.851658 0.643902 0.177731 0.407059 -0.020008 0.308887 0.703750 -0.034069 3.231211 7.397498 -0.168897 2.646237 18.119131 -0.117041 4.901926 -2.087052 -1.080056 2.850760 7.475939 1.151234 -7.495840 -15.251089 -7.223312 -47.273056 -69.363857 68.105046 -3.139764 2.140642 -29.814744 -5.320313 4.295093 -0.184993 21.751877 -7.235006 1.409415 53.252804 -69.817144 -76.616747 0.656746 9.880825 11.355473 -4.531176 -71.787909 0.875012 -117.905130 83.544056 -116.528708 -2.995039 -14.000570 -0.011962 -0.235754 0.772968 -0.099540 -14.256662 -74.792914 30.232852 108.185352 78.391829 104.388860 -15.450293 -21.288608 -0.663940 -0.430644 -1.012011 -0.218288
